HIERARCHY
ROOT Hips
{
	OFFSET 0.00000 0.00000 0.00000
	CHANNELS 6 Xposition Yposition Zposition Zrotation Yrotation Xrotation 
	JOINT LHipJoint
	{
		OFFSET 0 0 0
		CHANNELS 3 Zrotation Yrotation Xrotation
		JOINT LeftHip
		{
			OFFSET 1.58161 -1.81893 0.78828
			CHANNELS 3 Zrotation Yrotation Xrotation
			JOINT LeftKnee
			{
				OFFSET 2.53374 -6.96141 0.00000
				CHANNELS 3 Zrotation Yrotation Xrotation
				JOINT LeftAnkle
				{
					OFFSET 2.63509 -7.23986 0.00000
					CHANNELS 3 Zrotation Yrotation Xrotation
					JOINT LeftToe
					{
						OFFSET 0.14115 -0.38781 2.05350
						CHANNELS 3 Zrotation Yrotation Xrotation
						End Site
						{
							OFFSET 0.00000 -0.00000 1.05543
						}
					}
				}
			}
		}
	}
	JOINT RHipJoint
	{
		OFFSET 0 0 0
		CHANNELS 3 Zrotation Yrotation Xrotation
		JOINT RightHip
		{
			OFFSET -1.11138 -1.81893 0.78828
			CHANNELS 3 Zrotation Yrotation Xrotation
			JOINT RightKnee
			{
				OFFSET -2.58392 -7.09926 0.00000
				CHANNELS 3 Zrotation Yrotation Xrotation
				JOINT RightAnkle
				{
					OFFSET -2.66423 -7.31992 0.00000
					CHANNELS 3 Zrotation Yrotation Xrotation
					JOINT RightToe
					{
						OFFSET -0.18831 -0.51739 2.12114
						CHANNELS 3 Zrotation Yrotation Xrotation
						End Site
						{
							OFFSET -0.00000 -0.00000 1.09845
						}
					}
				}
			}
		}
	}
	JOINT lowerback
	{
		OFFSET 0 0 0
		CHANNELS 3 Zrotation Yrotation Xrotation
		JOINT Chest
		{
			OFFSET -0.01511 1.97958 -0.08829
			CHANNELS 3 Zrotation Yrotation Xrotation
			JOINT Chest2
			{
				OFFSET 0.08344 1.97334 -0.04330
				CHANNELS 3 Zrotation Yrotation Xrotation
				JOINT lowerneck
				{
					OFFSET 0 0 0
					CHANNELS 3 Zrotation Yrotation Xrotation
					JOINT Neck
					{
						OFFSET 0.00559 1.76246 0.31246
						CHANNELS 3 Zrotation Yrotation Xrotation
						JOINT Head
						{
							OFFSET -0.07011 1.80354 -0.30524
							CHANNELS 3 Zrotation Yrotation Xrotation
							End Site
							{
								OFFSET -0.02385 1.83547 -0.13906
							}
						}
					}
				}
				JOINT LeftCollar
				{
					OFFSET 0 0 0
					CHANNELS 3 Zrotation Yrotation Xrotation
					JOINT LeftShoulder
					{
						OFFSET 3.20667 1.30156 -0.60240
CHANNELS 3 Zrotation Xrotation Yrotation
						JOINT LeftElbow
						{
OFFSET 0 -4.956630 0.000000
CHANNELS 3 Zrotation Xrotation Yrotation
							JOINT LeftWrist
							{
OFFSET 0 -3.381770 0.000000
CHANNELS 3 Zrotation Xrotation Yrotation
								JOINT lhand
								{
									OFFSET 0 0 0
CHANNELS 3 Zrotation Xrotation Yrotation
									JOINT LFingers
									{
OFFSET 0 -0.662910 0.000000
CHANNELS 3 Zrotation Xrotation Yrotation
										End Site
										{
OFFSET 0 -0.534450 0.000000
										}
									}
								}
								JOINT LThumb
								{
OFFSET 0 0.000000 0.000000
CHANNELS 3 Zrotation Xrotation Yrotation
									End Site
									{
OFFSET 0 -0.542610 0.542610
									}
								}
							}
						}
					}
				}
				JOINT RightCollar
				{
					OFFSET 0 0 0
					CHANNELS 3 Zrotation Yrotation Xrotation
					JOINT RightShoulder
					{
						OFFSET -3.06877 1.34672 -0.60964
CHANNELS 3 Zrotation Xrotation Yrotation
						JOINT RightElbow
						{
OFFSET 0 -5.083650 0.000000
CHANNELS 3 Zrotation Xrotation Yrotation
							JOINT RightWrist
							{
OFFSET 0 -3.359840 0.000000
CHANNELS 3 Zrotation Xrotation Yrotation
								JOINT rhand
								{
									OFFSET 0 0 0
CHANNELS 3 Zrotation Xrotation Yrotation
									JOINT RFingers
									{
OFFSET 0 -0.820760 0.000000
CHANNELS 3 Zrotation Xrotation Yrotation
										End Site
										{
OFFSET 0 -0.661720 0.000000
										}
									}
								}
								JOINT RThumb
								{
OFFSET 0 0.000000 0.000000
CHANNELS 3 Zrotation Xrotation Yrotation
									End Site
									{
OFFSET 0 -0.671820 0.671820
									}
								}
							}
						}
					}
				}
			}
		}
	}
}
MOTION
Frames: 6
Frame Time: 0.008333333333333333
-0.381200 17.910800 -7.279600 -7.963200 -1.193300 7.975100 0.000000 0.000000 0.000000 -7.358900 -5.322600 -17.613100 3.303900 11.171400 32.860300 1.047200 -3.798500 -18.445300 0.098800 -2.027400 -5.581300 0.000000 0.000000 0.000000 25.225500 7.381500 -14.384100 -2.246000 -9.360700 26.930100 -0.769600 1.080000 -16.244700 -0.033900 -1.189000 3.269100 2.695000 0.751800 -4.503100 4.874200 0.743200 -0.131600 3.568900 0.375200 2.362600 1.163200 0.469900 -12.238700 -4.958800 2.530600 42.731500 -2.081800 0.555500 18.108400 -0.000000 0.000000 0.000000 1.336600 1.930900 -25.766000 14.480600 -23.417600 3.016500 5.035100 1.434800 -32.800100 0.000000 0.000000 0.000000 -7.125000 0.000000 0.000000 -31.323400 60.051700 12.214200 -0.000000 0.000000 0.000000 -5.971900 0.175800 20.790200 -13.998500 -22.732500 -2.827500 -17.798800 -10.497000 -10.709000 0.000000 0.000000 0.000000 7.125000 0.000000 -0.000000 6.541500 18.786500 4.113200
-0.377147 17.908484 -7.279311 -7.935989 -1.272908 7.971819 0.000000 0.000000 0.000000 -7.415253 -5.332249 -17.555879 3.295698 11.159049 32.818229 1.047972 -3.736358 -18.460546 0.095326 -1.991601 -5.482393 0.000000 0.000000 0.000000 25.171463 7.396843 -14.416619 -2.256421 -9.380867 26.993979 -0.771047 1.138958 -16.243832 -0.032163 -1.156867 3.180518 2.726071 0.774380 -4.511398 4.845638 0.770894 -0.115775 3.523837 0.389481 2.383153 1.154323 0.484278 -12.226445 -4.962756 2.556943 42.707666 -2.076203 0.564281 18.092189 0.000000 0.000000 0.000000 1.353583 1.976638 -25.862012 14.463714 -23.393766 3.009745 5.139217 1.434221 -32.726861 0.000000 0.000000 0.000000 -7.125000 0.000000 0.000000 -31.149132 60.014067 12.109697 0.000000 0.000000 0.000000 -5.925872 0.138553 20.818955 -13.971675 -22.694192 -2.817175 -17.890083 -10.546019 -10.774423 0.000000 0.000000 0.000000 7.125000 0.000000 0.000000 6.477235 18.712007 4.082997
-0.374489 17.907656 -7.279579 -7.850381 -1.343124 7.969747 0.000000 0.000000 0.000000 -7.540695 -5.282758 -17.534923 3.293168 11.155159 32.804983 1.060088 -3.614424 -18.588959 0.128676 -2.310273 -6.363956 0.000000 0.000000 0.000000 25.053916 7.428458 -14.424402 -2.262193 -9.392015 27.029590 -0.773332 1.212143 -16.248635 -0.037865 -1.255662 3.452638 2.668803 0.776781 -4.520162 4.815123 0.775341 -0.080422 3.525176 0.391116 2.424071 1.137541 0.524041 -12.314525 -4.955647 2.623550 42.727536 -2.059169 0.588126 18.132050 0.000000 0.000000 0.000000 1.360151 1.958586 -25.949654 14.434460 -23.352450 2.998155 5.198142 1.359158 -32.768369 0.000000 0.000000 0.000000 -7.125000 0.000000 0.000000 -31.130154 60.063007 12.138167 0.000000 0.000000 0.000000 -5.904951 0.081686 20.942187 -13.959355 -22.676620 -2.812430 -18.045343 -10.579044 -10.752995 0.000000 0.000000 0.000000 7.125000 0.000000 0.000000 6.367591 18.723527 4.011415
-0.373226 17.906974 -7.280942 -7.851248 -1.378535 7.955551 0.000000 0.000000 0.000000 -7.556174 -5.093234 -17.575199 3.290494 11.151142 32.791304 1.064311 -3.663385 -18.619807 0.162787 -2.598015 -7.161593 0.000000 0.000000 0.000000 25.047974 7.465519 -14.406467 -2.266000 -9.399422 27.053039 -0.776184 1.229222 -16.274860 -0.044027 -1.353398 3.721803 2.656168 0.785490 -4.519905 4.822743 0.785890 -0.053371 3.541417 0.396211 2.451171 1.110976 0.546239 -12.357172 -4.954742 2.669304 42.755408 -2.047073 0.601891 18.163376 0.000000 0.000000 0.000000 1.338856 1.945646 -26.060158 14.429437 -23.345373 2.996226 5.270575 1.288088 -32.940643 0.000000 0.000000 0.000000 -7.125000 0.000000 0.000000 -31.224141 60.225631 12.301847 0.000000 0.000000 0.000000 -5.903053 0.072042 21.002494 -13.973802 -22.697234 -2.818006 -18.032819 -10.583548 -10.672276 0.000000 0.000000 0.000000 7.125000 0.000000 0.000000 6.376054 18.808266 4.004758
-0.370693 17.907158 -7.282991 -7.917442 -1.378661 7.942121 0.000000 0.000000 0.000000 -7.485625 -5.025746 -17.584313 3.287879 11.147089 32.777591 1.057478 -3.769675 -18.542772 0.145264 -2.455499 -6.766289 0.000000 0.000000 0.000000 25.114244 7.448364 -14.407739 -2.268377 -9.403983 27.067451 -0.775726 1.256135 -16.262940 -0.050203 -1.444904 3.973937 2.720972 0.796387 -4.519542 4.842299 0.795612 -0.037947 3.526277 0.401701 2.467154 1.131816 0.537065 -12.322023 -5.030961 2.682268 42.769849 -2.085091 0.600893 18.165926 0.000000 0.000000 0.000000 1.313344 1.997863 -26.154078 14.466500 -23.397690 3.010888 5.387704 1.255123 -32.998072 0.000000 0.000000 0.000000 -7.125000 0.000000 0.000000 -31.162822 60.301732 12.331891 0.000000 0.000000 0.000000 -5.886149 0.092980 21.029650 -14.000361 -22.735222 -2.828243 -17.857617 -10.662898 -10.678132 0.000000 0.000000 0.000000 7.125000 0.000000 0.000000 6.499829 18.814489 4.082581
-0.367249 17.908190 -7.285279 -7.884226 -1.398883 7.922221 0.000000 0.000000 0.000000 -7.532719 -5.061597 -17.546898 3.286345 11.144768 32.769745 1.048383 -3.799343 -18.455989 0.106420 -2.098307 -5.777487 0.000000 0.000000 0.000000 25.064714 7.457601 -14.391229 -2.268205 -9.403693 27.066431 -0.772301 1.240177 -16.230316 -0.048543 -1.421978 3.910675 2.714216 0.810453 -4.496243 4.804065 0.817288 -0.040848 3.491007 0.412644 2.450579 1.237222 0.526623 -12.222573 -5.120675 2.669497 42.760154 -2.148405 0.602232 18.135863 0.000000 0.000000 0.000000 1.348856 2.093029 -26.234366 14.494455 -23.437144 3.021959 5.356512 1.205559 -33.063909 0.000000 0.000000 0.000000 -7.125000 0.000000 0.000000 -31.258130 60.349944 12.410480 0.000000 0.000000 0.000000 -5.809176 0.149694 21.041924 -14.035656 -22.785699 -2.841923 -17.694248 -10.784991 -10.692228 0.000000 0.000000 0.000000 7.125000 0.000000 0.000000 6.615284 18.811178 4.156576
